<?xml version="1.0" standalone="no"?>
<!DOCTYPE svg PUBLIC "-//W3C//DTD SVG 20010904//EN"
 "http://www.w3.org/TR/2001/REC-SVG-20010904/DTD/svg10.dtd">
<svg version="1.0" xmlns="http://www.w3.org/2000/svg"
 width="129.000000pt" height="129.000000pt" viewBox="0 0 129.000000 129.000000"
 preserveAspectRatio="xMidYMid meet">
<metadata>
Created by potrace 1.11, written by Peter Selinger 2001-2013
</metadata>
<g transform="translate(0.000000,129.000000) scale(0.100000,-0.100000)"
fill="#000000" stroke="none">
<path d="M495 1181 c-87 -23 -133 -43 -204 -88 -54 -35 -171 -147 -171 -163 0
-5 -6 -15 -13 -22 -25 -26 -75 -145 -91 -214 -15 -68 -16 -210 -2 -273 38
-167 117 -276 224 -307 172 -50 316 71 330 278 l5 81 -56 -46 c-84 -68 -150
-98 -160 -73 -12 30 62 142 157 241 47 50 54 66 60 155 11 151 39 270 64 270
41 0 76 -138 81 -326 1 -34 8 -49 39 -80 58 -60 140 -162 157 -194 8 -16 15
-41 15 -55 0 -23 -3 -25 -22 -20 -35 10 -122 64 -157 97 -17 16 -31 25 -32 21
-7 -61 8 -149 35 -209 64 -139 224 -194 351 -120 112 66 189 259 180 454 -12
286 -212 524 -500 599 -11 2 -65 7 -120 9 -76 3 -117 -1 -170 -15z"/>
</g>
</svg>
