<svg width="180" height="180" viewBox="0 0 180 180" fill="none" xmlns="http://www.w3.org/2000/svg">
<rect width="180" height="180" fill="white"/>
<mask id="mask0" mask-type="alpha" maskUnits="userSpaceOnUse" x="0" y="9" width="180" height="165">
<path d="M90 173.556L164.556 99C185.148 78.408 185.148 45.027 164.556 24.444C143.964 3.852 110.583 3.852 90 24.444C69.408 3.852 36.027 3.852 15.444 24.444C-5.148 45.036 -5.148 78.417 15.444 99L90 173.556Z" fill="black"/>
</mask>
<g mask="url(#mask0)">
<path d="M90 173.556L164.556 99C185.148 78.408 185.148 45.027 164.556 24.444C143.964 3.852 110.583 3.852 90 24.444C69.408 3.852 36.027 3.852 15.444 24.444C-5.148 45.036 -5.148 78.417 15.444 99L90 173.556Z" fill="url(#paint0_linear)"/>
<ellipse cx="98" cy="97" rx="82" ry="83" fill="white"/>
<path fill-rule="evenodd" clip-rule="evenodd" d="M179.904 76.5096C179.801 76.8691 179.62 77.2017 179.373 77.4834C172.402 85.5297 151.581 84.716 151.581 84.716C141.21 84.7212 131.061 81.7323 122.373 76.1137C113.684 70.4951 106.831 62.4896 102.649 53.0734C100.395 47.7532 96.667 43.1763 91.8969 39.8739C88.3654 37.3618 84.2361 35.804 79.9145 35.3535C79.9145 35.3535 53.125 28.9346 31.2561 57.9554C31.1214 58.1378 31.0302 58.3481 30.9895 58.5705C30.9487 58.793 30.9595 59.0217 31.0209 59.2394C31.0824 59.4571 31.1929 59.6581 31.3441 59.8272C31.4954 59.9964 31.6833 60.1292 31.8939 60.2156L36.8144 62.4306C38.7852 63.1782 40.5179 64.4364 41.832 66.0742C43.1462 67.712 43.9937 69.6694 44.2863 71.7425L46.291 85.3037C49.0702 110.527 67.021 131.231 92.5803 131.231C101.799 131.239 110.81 128.516 118.459 123.41C118.459 123.41 123.015 120.201 128.71 116.404C135.102 112.287 142.364 109.684 149.933 108.799C157.501 107.913 165.174 108.767 172.357 111.296L176.092 112.697C176.708 112.932 177.214 113.387 177.509 113.972C177.804 114.558 177.867 115.232 177.687 115.861C172.23 134.646 160.762 151.159 145.016 162.91C129.269 174.66 110.097 181.009 90.3934 181C66.5646 180.64 43.8108 171.1 26.9423 154.397C10.0739 137.694 0.412825 115.138 0.00164264 91.4966C-0.135048 68.9438 8.27165 47.1629 23.5561 30.4694C38.8405 13.7759 59.8875 3.38777 82.5268 1.36333C105.166 -0.661102 127.746 5.82584 145.792 19.5389C163.839 33.2519 176.035 53.1905 179.965 75.4041C180.027 75.7725 180.006 76.1501 179.904 76.5096ZM55.6308 55.8308C58.5496 55.8308 60.9158 53.4832 60.9158 50.5872C60.9158 47.6912 58.5496 45.3436 55.6308 45.3436C52.712 45.3436 50.3458 47.6912 50.3458 50.5872C50.3458 53.4832 52.712 55.8308 55.6308 55.8308ZM93.537 122.145C64.5606 117.353 58.091 91.4514 56.7698 83.3148C56.7957 83.2509 56.8395 83.1956 56.896 83.1556C56.9525 83.1156 57.0194 83.0924 57.0887 83.0887C64.3702 99.6865 77.2605 113.243 93.537 121.422C93.6337 121.422 93.7264 121.46 93.7948 121.527C93.8631 121.595 93.9015 121.687 93.9015 121.783C93.9015 121.879 93.8631 121.971 93.7948 122.039C93.7264 122.107 93.6337 122.145 93.537 122.145Z" fill="url(#paint1_linear)"/>
</g>
<defs>
<linearGradient id="paint0_linear" x1="12" y1="26.5" x2="132" y2="133" gradientUnits="userSpaceOnUse">
<stop stop-color="#F2576A"/>
<stop offset="1" stop-color="#9F29B7"/>
</linearGradient>
<linearGradient id="paint1_linear" x1="24.5" y1="19" x2="137" y2="125" gradientUnits="userSpaceOnUse">
<stop stop-color="#F2576C"/>
<stop offset="1" stop-color="#9F29B6"/>
</linearGradient>
</defs>
</svg>
